<svg width="1630" height="112" viewBox="0 0 1630 112" fill="none" xmlns="http://www.w3.org/2000/svg">
<path d="M814.564 28.9484C809.17 26.3334 803.634 25.8915 797.608 24.2789C790.734 22.44 785.897 25.0849 779.585 27.0028C774.886 28.4313 774.189 29.4899 769.434 27.0691C767.021 25.8426 764.497 23.1575 762.246 22.2276C759.136 20.945 749.752 22.7936 746.809 26.257C742.651 31.1504 744.798 35.5073 737.709 32.3367C731.346 29.4899 725.677 24.3256 719.054 21.5411C712.883 18.9467 707.501 16.1763 701.932 11.8723C698.045 8.86998 692.837 4.64501 689.644 0.957504C687.393 -1.64254 674.412 1.35211 670.106 6.34267C667.445 9.42947 664.762 13.7864 661.031 15.3341C659.524 15.9601 657.627 15.3341 656.113 16.0207C654.464 16.7705 652.486 20.5308 650.971 20.6057C648.094 20.7446 648.431 15.7421 647.195 14.5417C642.863 10.3371 635.521 15.8007 631.28 19.5306C627.645 22.7289 625.287 26.2427 621.282 28.9003C614.323 33.5167 608.85 37.6226 602.93 43.8578C597.409 49.6708 591.39 55.1428 584.671 58.4121C580.507 60.4367 575.475 61.0105 571.252 63.0311C566.482 65.3143 563.839 63.5566 559.122 66.2173C553.567 69.3491 550.102 68.6403 544.455 70.1897C540.232 71.3499 534.435 67.7753 530.229 69.222C523.008 71.7035 516.897 78.5877 509.751 76.5205C504.358 74.9586 500.251 70.5275 494.703 70.1897C488.881 69.8385 484.834 70.8993 479.221 70.1897C473.982 69.5291 468.47 66.0294 464.327 68.7413C462.104 70.1937 456.876 69.6199 454.686 69.0808C445.728 66.8723 445.19 70.6687 439.193 63.6489C434.95 58.6853 434.622 59.0886 429.612 60.4264C426.359 61.2954 425.173 60.7278 422.447 59.7697C417.317 57.9637 414.343 49.1072 409.353 46.2138C400.474 41.0654 391.219 33.4843 380.611 31.5775C376.754 30.8837 376.128 33.3613 373.161 34.141C370.958 34.7227 368.569 34.3936 366.271 34.3651C359.592 34.2863 353.374 34.2239 347.042 35.7053C339.337 37.5073 335.124 38.5721 329.571 31.6232C327.085 28.512 307.998 25.1275 305.279 26.8268C297.001 31.9996 290.331 40.9723 283.032 47.7876C277.102 53.3284 269.644 56.7451 262.031 58.4784C255.992 59.8525 251.212 64.383 245.336 65.9544C240.577 67.2275 231.162 63.7057 226.722 61.1461C220.941 57.8099 216.388 54.1831 209.439 55.6015C198.848 57.7657 183.157 66.5022 173.487 60.4027C168.088 56.9977 164.884 55.9591 159.184 54.3995C157.094 53.8295 154.347 53.3078 151.995 52.5462C149.799 51.8328 147.193 51.6046 144.956 51.6473C139.347 51.7505 137.56 54.0861 132.552 56.5897C128.022 58.8526 125.721 58.3007 122.384 54.1768C118.344 49.1822 114.351 45.4727 109.052 41.7221C105.237 39.0251 99.5408 36.0062 95.5388 34.6304C90.539 32.9089 85.2088 31.6761 80.0876 29.0272C78.7144 28.3178 77.0541 26.1805 75.5401 26.0895C72.6765 25.9176 68.6129 29.4962 65.8524 30.4377C59.3841 32.6422 53.5272 34.7939 46.7073 34.4221C40.5168 34.0867 37.6566 26.6935 32.473 26.099C29.424 25.7495 25.1751 29.868 22.9472 31.5711C18.8975 34.6643 15.7263 32.0501 11.3191 34.5815C10.4239 35.0969 6.80076 33.5411 2.98321 30.9302C2.13611 30.3525 1.13205 29.5845 0 28.9484V111.47H814.564V28.9484Z" fill="#191B1F"/>
<path d="M1629.13 28.9484C1623.73 26.3334 1618.2 25.8915 1612.17 24.2789C1605.3 22.44 1600.46 25.0849 1594.15 27.0028C1589.45 28.4313 1588.75 29.4899 1584 27.0691C1581.58 25.8426 1579.06 23.1575 1576.81 22.2276C1573.7 20.945 1564.32 22.7936 1561.37 26.257C1557.21 31.1504 1559.36 35.5073 1552.27 32.3367C1545.91 29.4899 1540.24 24.3256 1533.62 21.5411C1527.45 18.9467 1522.07 16.1763 1516.5 11.8723C1512.61 8.86998 1507.4 4.64501 1504.21 0.957504C1501.96 -1.64254 1488.98 1.35211 1484.67 6.34267C1482.01 9.42947 1479.33 13.7864 1475.6 15.3341C1474.09 15.9601 1472.19 15.3341 1470.68 16.0207C1469.03 16.7705 1467.05 20.5308 1465.53 20.6057C1462.66 20.7446 1462.99 15.7421 1461.76 14.5417C1457.43 10.3371 1450.09 15.8007 1445.84 19.5306C1442.21 22.7289 1439.85 26.2427 1435.85 28.9003C1428.89 33.5167 1423.41 37.6226 1417.49 43.8578C1411.97 49.6708 1405.95 55.1428 1399.23 58.4121C1395.07 60.4367 1390.04 61.0105 1385.82 63.0311C1381.05 65.3143 1378.4 63.5566 1373.69 66.2173C1368.13 69.3491 1364.66 68.6403 1359.02 70.1897C1354.8 71.3499 1349 67.7753 1344.79 69.222C1337.57 71.7035 1331.46 78.5877 1324.31 76.5205C1318.92 74.9586 1314.81 70.5275 1309.27 70.1897C1303.45 69.8385 1299.4 70.8993 1293.78 70.1897C1288.55 69.5291 1283.03 66.0294 1278.89 68.7413C1276.67 70.1937 1271.44 69.6199 1269.25 69.0808C1260.29 66.8723 1259.75 70.6687 1253.76 63.6489C1249.51 58.6853 1249.19 59.0886 1244.18 60.4264C1240.92 61.2954 1239.74 60.7278 1237.01 59.7697C1231.88 57.9637 1228.91 49.1072 1223.92 46.2138C1215.04 41.0654 1205.78 33.4843 1195.18 31.5775C1191.32 30.8837 1190.69 33.3613 1187.73 34.141C1185.52 34.7227 1183.13 34.3936 1180.84 34.3651C1174.16 34.2863 1167.94 34.2239 1161.61 35.7053C1153.9 37.5073 1149.69 38.5721 1144.13 31.6232C1141.65 28.512 1122.56 25.1275 1119.84 26.8268C1111.56 31.9996 1104.89 40.9723 1097.6 47.7876C1091.67 53.3284 1084.21 56.7451 1076.59 58.4784C1070.56 59.8525 1066.7 46.9234 1060.82 48.4948C1056.07 49.768 1047 59.5557 1042.56 56.9938C1036.78 53.6599 1030.95 54.1831 1024 55.6015C1013.41 57.7657 997.721 66.5022 988.05 60.4027C982.652 56.9977 979.448 55.9591 973.748 54.3995C971.659 53.8295 968.911 53.3078 966.56 52.5462C964.362 51.8328 961.758 51.6046 959.518 51.6473C953.911 51.7505 952.124 54.0861 947.115 56.5897C942.586 58.8526 940.286 58.3007 936.948 54.1768C932.907 49.1822 928.914 45.4727 923.616 41.7221C919.802 39.0251 914.106 36.0062 910.101 34.6304C905.104 32.9089 899.773 31.6761 894.652 29.0272C893.278 28.3178 891.618 26.1805 890.105 26.0895C887.241 25.9176 883.176 29.4962 880.417 30.4377C873.947 32.6422 868.092 34.7939 861.271 34.4221C855.08 34.0867 852.22 26.6935 847.036 26.099C843.988 25.7495 839.739 29.868 837.511 31.5711C833.462 34.6643 830.29 32.0501 825.883 34.5815C824.987 35.0969 821.365 33.5411 817.547 30.9302C816.7 30.3525 815.695 29.5845 814.564 28.9484V111.47H1629.13V28.9484Z" fill="#191B1F"/>
</svg>
